<?xml version="1.0" encoding="utf-8"?>
<!-- Generator: Adobe Illustrator 26.0.1, SVG Export Plug-In . SVG Version: 6.00 Build 0)  -->
<svg version="1.1" id="Layer_1" xmlns="http://www.w3.org/2000/svg" xmlns:xlink="http://www.w3.org/1999/xlink" x="0px" y="0px"
	 viewBox="0 0 233.1 260.7" style="enable-background:new 0 0 233.1 260.7;" xml:space="preserve">
<style type="text/css">
	.st0{fill:#86B8FC;}
	.st1{fill:none;stroke:#000000;stroke-miterlimit:10;}
</style>
<g>
	<g>
		<path class="st0" d="M12,203.3v-4.1c4.7-0.3,8.2-0.8,10.6-1.6c2.4-0.8,4-2.5,4.8-4.9c0.8-2.5,1.2-6.2,1.2-11.1V79.3
			c0-5.1-0.4-8.8-1.2-11.2c-0.8-2.4-2.4-4-4.8-4.9c-2.4-0.9-5.9-1.4-10.6-1.5v-4.1c2.9,0.1,6.7,0.3,11.3,0.4c4.7,0.1,9.7,0.2,15,0.2
			c4.8,0,9.6-0.1,14.3-0.2c4.7-0.1,8.7-0.3,11.8-0.4v4.1c-4.7,0.1-8.2,0.7-10.6,1.5c-2.4,0.9-4,2.5-4.8,4.9
			c-0.8,2.4-1.2,6.1-1.2,11.2v102.1c0,4.9,0.4,8.6,1.2,11.1c0.8,2.5,2.4,4.1,4.8,4.9c2.4,0.8,5.9,1.4,10.6,1.6v4.1
			c-3.2-0.3-7.1-0.4-11.8-0.5c-4.7-0.1-9.5-0.1-14.3-0.1c-5.4,0-10.4,0-15,0.1C18.6,202.8,14.8,203,12,203.3z M40.6,132v-4.1h81.3
			v4.1H40.6z M98,203.3v-4.1c4.7-0.3,8.2-0.8,10.6-1.6c2.4-0.8,4-2.5,4.8-4.9c0.8-2.5,1.2-6.2,1.2-11.1V79.3c0-5.1-0.4-8.8-1.2-11.2
			c-0.8-2.4-2.4-4-4.8-4.9c-2.4-0.9-5.9-1.4-10.6-1.5v-4.1c3.2,0.1,7.1,0.3,11.9,0.4c4.8,0.1,9.5,0.2,14.2,0.2
			c5.4,0,10.4-0.1,15-0.2c4.7-0.1,8.4-0.3,11.3-0.4v4.1c-4.7,0.1-8.2,0.7-10.6,1.5c-2.4,0.9-4,2.5-4.8,4.9
			c-0.8,2.4-1.2,6.1-1.2,11.2v102.1c0,4.9,0.4,8.6,1.2,11.1c0.8,2.5,2.4,4.1,4.8,4.9c2.4,0.8,5.9,0.7,10.6,1v4.2
			c-2.9-0.3-6.7,0.1-11.3,0c-4.7-0.1-9.7-0.1-15-0.1c-4.7,0-9.4,0-14.2,0.1C105.2,202.8,101.2,203,98,203.3z"/>
		<path class="st0" d="M187.3,188.1c-0.2-4.9-0.3-8.6-0.3-11.2c0-7,0.2-12.6,0.6-16.9h-4.7c-0.7,7.1-1.6,13.2-2.9,18.1
			c-1.2,4.9-3.1,8.9-5.5,11.8c-2.4,3-5.6,5.1-9.7,6.5c-4.1,1.4-9.3,2.1-15.8,2.1h-15c-1,0-2,0-3-0.1v4.2c4.1,0,7.5,0,10.2,0
			c6.9,0,14.7,0,23.5,0.1c8.8,0.1,16.7,0.2,23.7,0.5C187.9,198,187.6,193,187.3,188.1z"/>
	</g>
	<g>
		<path class="st1" d="M189,161.1l-25.5-20.6l32.2,6.2l25.5,20.6L189,161.1z"/>
		<path d="M189,161.1l-14-11.3l-7.2,15.4c0,0,5.2,7.7,13.8,11.7c8.6,4,17.9,3,17.9,3l7.2-15.4L189,161.1z"/>
	</g>
	<rect x="212.5" y="195.8" transform="matrix(0.7071 0.7071 -0.7071 0.7071 203.7623 -94.1698)" width="6.2" height="6.2"/>
	<line class="st1" x1="215.6" y1="198.9" x2="215.6" y2="166.2"/>
</g>
</svg>
